<mxfile host="app.diagrams.net" modified="2022-06-06T04:28:53.714Z" agent="5.0 (X11)" etag="u37JPooe1XNRRDBj9hCm" version="18.2.0" type="github">
  <diagram id="66K_lOx8x2pNwgMANSE0" name="第 1 页">
    <mxGraphModel dx="494" dy="275" grid="1" gridSize="10" guides="1" tooltips="1" connect="1" arrows="1" fold="1" page="1" pageScale="1" pageWidth="827" pageHeight="1169" math="0" shadow="0">
      <root>
        <mxCell id="0" />
        <mxCell id="1" parent="0" />
        <mxCell id="yyqOdsKrYR6vZJGjtAN_-4" style="rounded=0;orthogonalLoop=1;jettySize=auto;html=1;exitX=0;exitY=1;exitDx=0;exitDy=0;" edge="1" parent="1" source="yyqOdsKrYR6vZJGjtAN_-1" target="yyqOdsKrYR6vZJGjtAN_-2">
          <mxGeometry relative="1" as="geometry" />
        </mxCell>
        <mxCell id="yyqOdsKrYR6vZJGjtAN_-5" style="edgeStyle=none;rounded=0;orthogonalLoop=1;jettySize=auto;html=1;exitX=1;exitY=1;exitDx=0;exitDy=0;" edge="1" parent="1" source="yyqOdsKrYR6vZJGjtAN_-1" target="yyqOdsKrYR6vZJGjtAN_-3">
          <mxGeometry relative="1" as="geometry" />
        </mxCell>
        <mxCell id="yyqOdsKrYR6vZJGjtAN_-1" value="+" style="ellipse;whiteSpace=wrap;html=1;aspect=fixed;" vertex="1" parent="1">
          <mxGeometry x="200" y="80" width="40" height="40" as="geometry" />
        </mxCell>
        <mxCell id="yyqOdsKrYR6vZJGjtAN_-2" value="1" style="ellipse;whiteSpace=wrap;html=1;aspect=fixed;" vertex="1" parent="1">
          <mxGeometry x="120" y="160" width="40" height="40" as="geometry" />
        </mxCell>
        <mxCell id="yyqOdsKrYR6vZJGjtAN_-3" value="1" style="ellipse;whiteSpace=wrap;html=1;aspect=fixed;" vertex="1" parent="1">
          <mxGeometry x="280" y="160" width="40" height="40" as="geometry" />
        </mxCell>
        <mxCell id="yyqOdsKrYR6vZJGjtAN_-6" value="&lt;div&gt;中缀表达式：1+1&lt;br&gt;&lt;/div&gt;&lt;div&gt;后缀表达式：11+&lt;/div&gt;&lt;div&gt;前缀表达式：+11&lt;br&gt;&lt;/div&gt;" style="text;html=1;align=center;verticalAlign=middle;resizable=0;points=[];autosize=1;strokeColor=none;fillColor=none;" vertex="1" parent="1">
          <mxGeometry x="320" y="110" width="110" height="50" as="geometry" />
        </mxCell>
      </root>
    </mxGraphModel>
  </diagram>
</mxfile>
